:SAMPLES-PER-SECOND 30
:FULLY-SPECIFIED
:DEGREES
236
root  34.2092 37.4693 17.3341 153.189 81.4214 158.026
RightUpLeg  -17.4246 -18.5578 -18.0747
RightLeg  4.75964 -19.2711 4.47095
RightFoot  19.9185 -1.15879 4.67194
RightToes  0.00048216 0.542163 -0.142577
Spine  41.6964 -4.74852 7.77815
Spine1  9.2134 -1.49703 -1.19451
HEad  -4.08745 37.6422 -28.5362
LeftShoulder1  10.3976 -15.6446 -47.3902
LeftArm  -16.7386 21.3047 -18.5476
LeftForeArm  19.8457 -18.2583 -3.24254
LeftHand  -0.25398 0.0180481 5.50724
RightShoulder  6.26934 10.825 37.7194
RightArm  26.0956 -25.6807 28.1383
RightForeArm  -14.0048 22.8461 5.74223
RightHand  -0.230182 -3.35613 -12.192
LeftUpLeg  -1.10745 3.13515 11.1891
LeftLeg  33.1575 1.45719 1.38021
LeftFoot  -19.0693 -0.797779 -13.5947
LeftToes  1.06244e-005 4.65856e-005 -8.18505e-006
237
root  33.1577 37.3112 16.3875 150.199 80.6584 156.254
RightUpLeg  -14.6461 -18.7183 -20.2831
RightLeg  0.413521 -19.6955 4.97286
RightFoot  16.3004 -1.91946 8.27291
RightToes  0.00048216 0.542163 -0.142577
Spine  40.9739 -4.12118 5.57036
Spine1  9.5323 -1.82838 -1.25554
HEad  -2.35417 39.7431 -26.9695
LeftShoulder1  10.0362 -15.3931 -46.3272
LeftArm  -17.5101 21.9819 -18.771
LeftForeArm  19.5032 -19.5944 -3.35181
LeftHand  -0.25398 0.0180481 5.50724
RightShoulder  6.23679 10.583 38.221
RightArm  23.3094 -29.7441 29.9282
RightForeArm  -12.1162 22.7457 5.66148
RightHand  -0.109048 -4.45233 -10.5695
LeftUpLeg  -1.59688 5.33285 9.27799
LeftLeg  34.2905 0.501891 0.732317
LeftFoot  -21.7545 -0.954471 -11.8826
LeftToes  1.06244e-005 4.65856e-005 -8.18505e-006
238
root  32.1012 37.2477 15.4964 147.635 79.9171 154.395
RightUpLeg  -11.8372 -18.3609 -22.0412
RightLeg  -5.22467 -21.0834 5.79575
RightFoot  11.3357 -2.06043 10.6179
RightToes  0.00048216 0.542163 -0.142577
Spine  39.917 -3.45871 3.41409
Spine1  9.87657 -1.95687 -1.6526
HEad  -0.422172 41.4022 -24.8111
LeftShoulder1  9.67645 -15.1555 -45.1989
LeftArm  -17.7359 21.9317 -18.8033
LeftForeArm  18.3803 -20.8105 -3.58224
LeftHand  -0.25398 0.0180481 5.50724
RightShoulder  6.17955 10.3094 38.6644
RightArm  18.6581 -32.4627 32.4416
RightForeArm  -8.61922 21.8238 5.62834
RightHand  -0.0250016 -5.49229 -8.8389
LeftUpLeg  -3.4525 6.47975 6.88176
LeftLeg  36.3135 0.486592 0.759268
LeftFoot  -22.2017 -0.702791 -8.74458
LeftToes  1.06244e-005 4.65856e-005 -8.18505e-006
239
root  31.0541 37.2903 14.6587 146.055 79.9381 153.34
RightUpLeg  -10.4413 -18.2777 -22.7485
RightLeg  -7.8227 -23.4168 6.61586
RightFoot  8.18242 -1.90128 11.3247
RightToes  0.00048216 0.542163 -0.142577
Spine  38.764 -2.89233 2.13374
Spine1  10.4611 -1.67705 -2.34804
HEad  1.115 42.5234 -23.4686
LeftShoulder1  9.38672 -14.8115 -44.6474
LeftArm  -18.3115 21.4572 -18.7765
LeftForeArm  17.0859 -22.2709 -3.89387
LeftHand  -0.25398 0.0180481 5.50724
RightShoulder  6.01334 9.96898 38.5648
RightArm  13.4187 -33.6644 35.2898
RightForeArm  -3.80971 20.8156 5.6047
RightHand  0.037833 -6.84348 -6.47725
LeftUpLeg  -5.22134 7.10089 4.93135
LeftLeg  37.9353 0.797733 1.04875
LeftFoot  -21.259 -0.468787 -6.87182
LeftToes  1.06244e-005 4.65856e-005 -8.18505e-006
240
root  30.0027 37.5338 13.8431 144.935 81.2112 152.901
RightUpLeg  -10.9887 -18.7316 -22.1487
RightLeg  -3.66829 -25.0564 6.25337
RightFoot  7.10676 -1.62861 10.309
RightToes  0.00048216 0.542163 -0.142577
Spine  38.0543 -2.59316 2.20118
Spine1  11.0898 -0.981624 -3.55397
HEad  1.9697 43.7621 -23.5736
LeftShoulder1  9.15172 -14.3713 -44.5997
LeftArm  -19.5535 21.2796 -18.9903
LeftForeArm  16.0061 -23.9822 -4.28816
LeftHand  -0.25398 0.0180481 5.50724
RightShoulder  5.85037 9.75647 38.0736
RightArm  10.5145 -33.5337 37.5358
RightForeArm  -0.323708 20.5476 5.45714
RightHand  0.0546002 -8.28196 -4.31034
LeftUpLeg  -5.69352 8.35236 3.86472
LeftLeg  37.5441 1.3056 1.45541
LeftFoot  -19.8558 -0.311526 -5.77669
LeftToes  1.06244e-005 4.65856e-005 -8.18505e-006
241
root  29.0104 37.9368 13.0976 143.806 83.1167 152.361
RightUpLeg  -12.475 -21.0796 -19.9547
RightLeg  4.82416 -22.7119 3.90867
RightFoot  6.57376 -1.3484 8.82501
RightToes  0.00048216 0.542163 -0.142577
Spine  37.5269 -2.49851 2.83504
Spine1  11.3009 -0.174159 -5.17768
HEad  2.59795 45.6013 -24.5513
LeftShoulder1  8.95111 -13.9511 -44.6753
LeftArm  -20.7084 21.7192 -19.4847
LeftForeArm  15.0959 -25.3533 -4.63399
LeftHand  -0.25398 0.0180481 5.50724
RightShoulder  5.81353 9.78504 37.7147
RightArm  10.9 -32.3777 38.4038
RightForeArm  0.678883 21.1288 5.23003
RightHand  0.038171 -9.08911 -3.07182
LeftUpLeg  -5.34015 10.0535 3.30307
LeftLeg  35.3382 2.0977 1.96962
LeftFoot  -17.9991 -0.133124 -4.11036
LeftToes  1.06244e-005 4.65856e-005 -8.18505e-006
242
root  28.1083 38.4267 12.4509 143.373 84.9372 151.971
RightUpLeg  -14.5426 -29.4017 -14.9579
RightLeg  13.1973 -12.1422 -0.21426
RightFoot  5.12225 -1.074 7.64712
RightToes  0.00048216 0.542163 -0.142577
Spine  36.6161 -2.44929 3.36069
Spine1  10.9756 0.443907 -6.60685
HEad  3.58527 48.039 -25.029
LeftShoulder1  8.75428 -13.5633 -44.6857
LeftArm  -21.1449 22.59 -20.1382
LeftForeArm  14.6384 -25.9423 -4.78853
LeftHand  -0.25398 0.0180481 5.50724
RightShoulder  5.83715 9.87845 37.5902
RightArm  12.2443 -30.5729 38.0676
RightForeArm  0.481528 22.1591 5.03056
RightHand  0.0236036 -8.83507 -2.78207
LeftUpLeg  -5.06627 11.4054 2.83496
LeftLeg  32.1146 2.97118 2.37175
LeftFoot  -15.3299 0.0118839 -2.29953
LeftToes  1.06244e-005 4.65856e-005 -8.18505e-006
243
root  27.2534 38.9755 11.866 146.738 86.6528 154.963
RightUpLeg  -15.5851 -32.1154 -10.8051
RightLeg  19.8582 -7.24903 -3.50678
RightFoot  2.88829 -0.783065 6.42391
RightToes  0.00048216 0.542163 -0.142577
Spine  35.4035 -2.43155 4.03328
Spine1  10.3507 0.867336 -7.49119
HEad  5.2777 50.6492 -24.6591
LeftShoulder1  8.50635 -13.1292 -44.5462
LeftArm  -20.9878 23.7706 -20.936
LeftForeArm  15.1019 -26.0295 -4.78307
LeftHand  -0.25398 0.0180481 5.50724
RightShoulder  5.78066 9.82897 37.3367
RightArm  11.7813 -28.6296 37.4491
RightForeArm  -0.0686199 23.3061 5.02463
RightHand  0.0238739 -7.73335 -3.77954
LeftUpLeg  -4.72823 12.4997 2.62337
LeftLeg  27.9339 3.59534 2.41849
LeftFoot  -12.0823 0.0660797 -1.19679
LeftToes  1.06244e-005 4.65856e-005 -8.18505e-006
